Results
version=1
nRows=9
nColumns=39
inDegrees=yes
endheader
time	/jointset/UpperExo_to_pelvis/hip_exo_r/value	/jointset/UpperExo_to_pelvis/hip_exo_r/speed	/jointset/UpperExo_to_pelvis/exo_tx/value	/jointset/UpperExo_to_pelvis/exo_tx/speed	/jointset/LowExo_to_UpperExo/LowExo_to_UpperExo_rz/value	/jointset/LowExo_to_UpperExo/LowExo_to_UpperExo_rz/speed	/jointset/ground_pelvis/pelvis_tilt/value	/jointset/ground_pelvis/pelvis_tilt/speed	/jointset/ground_pelvis/pelvis_tx/value	/jointset/ground_pelvis/pelvis_tx/speed	/jointset/ground_pelvis/pelvis_ty/value	/jointset/ground_pelvis/pelvis_ty/speed	/jointset/hip_r/hip_flexion_r/value	/jointset/hip_r/hip_flexion_r/speed	/jointset/knee_r/knee_angle_r/value	/jointset/knee_r/knee_angle_r/speed	/jointset/tib_pat_r/knee_angle_pat_r/value	/jointset/tib_pat_r/knee_angle_pat_r/speed	/jointset/ankle_r/ankle_angle_r/value	/jointset/ankle_r/ankle_angle_r/speed	/forceset/bifemlh_r/activation	/forceset/bifemlh_r/fiber_length	/forceset/bifemsh_r/activation	/forceset/bifemsh_r/fiber_length	/forceset/glut_max2_r/activation	/forceset/glut_max2_r/fiber_length	/forceset/psoas_r/activation	/forceset/psoas_r/fiber_length	/forceset/rect_fem_r/activation	/forceset/rect_fem_r/fiber_length	/forceset/vas_int_r/activation	/forceset/vas_int_r/fiber_length	/forceset/med_gas_r/activation	/forceset/med_gas_r/fiber_length	/forceset/soleus_r/activation	/forceset/soleus_r/fiber_length	/forceset/tib_ant_r/activation	/forceset/tib_ant_r/fiber_length
      0.00000000	     93.22299922	      0.00000000	      0.01999047	      0.00000000	    -90.16400146	      0.00000000	      1.14702713	      0.00000000	      0.05768549	      0.00000000	      1.06004667	      0.00000000	     90.00020523	      0.00000000	    -90.16399221	      0.00000000	     -1.57365853	      0.00000000	     -6.22700024	      0.00000000	      0.05000000	      0.14857124	      0.05000000	      0.15117907	      0.05000000	      0.15613586	      0.05000000	      0.04175535	      0.05000000	      0.11041235	      0.05000000	      0.14788617	      0.05000000	      0.06629001	      0.05000000	      0.08409161	      0.05000000	      0.09340934
      0.00100000	     93.22299922	      0.00000000	      0.01999047	     -0.00000000	    -90.17808362	    -28.15069329	      1.14702713	     -0.00000000	      0.05768549	      0.00000000	      1.06004667	     -0.00000000	     90.00020523	      0.00000000	    -90.15686068	     14.23029620	     -1.57353406	      0.24836552	     -6.27424694	    -93.93524987	      0.04928705	      0.14857157	      0.04928705	      0.15117967	      0.04928705	      0.15613624	      0.04928705	      0.04175560	      0.04928705	      0.11041263	      0.04928705	      0.14788633	      0.04928705	      0.06628990	      0.04928705	      0.08409124	      0.04928705	      0.09340996
      0.00200000	     93.22299922	      0.00000000	      0.01999047	      0.00000000	    -90.22024848	    -56.13834886	      1.14702713	     -0.00000000	      0.05768549	      0.00000000	      1.06004667	     -0.00000000	     90.00020523	      0.00000000	    -90.13565881	     28.08202873	     -1.57316402	      0.49012386	     -6.41271307	   -181.45731334	      0.04858556	      0.14857271	      0.04858556	      0.15118201	      0.04858556	      0.15613738	      0.04858556	      0.04175636	      0.04858556	      0.11041335	      0.04858556	      0.14788612	      0.04858556	      0.06628728	      0.04858556	      0.08408690	      0.04858556	      0.09341351
      0.00300000	     93.22299922	      0.00000000	      0.01999047	     -0.00000000	    -90.29025221	    -83.80184848	      1.14702713	     -0.00000000	      0.05768549	      0.00000000	      1.06004667	     -0.00000000	     90.00020523	      0.00000000	    -90.10092755	     41.24518590	     -1.57255784	      0.71986429	     -6.63331144	   -257.51269271	      0.04789530	      0.14857486	      0.04789530	      0.15118686	      0.04789530	      0.15613923	      0.04789530	      0.04175761	      0.04789530	      0.11041430	      0.04789530	      0.14788398	      0.04789530	      0.06627868	      0.04789530	      0.08407357	      0.04789530	      0.09342424
      0.00400000	     93.22299922	      0.00000000	      0.01999047	     -0.00000000	    -90.38769155	   -110.98368311	      1.14702713	     -0.00000000	      0.05768549	      0.00000000	      1.06004667	     -0.00000000	     90.00020523	      0.00000000	    -90.05346991	     53.50838128	     -1.57172955	      0.93389743	     -6.92285785	   -319.01475050	      0.04721606	      0.14857826	      0.04721606	      0.15119502	      0.04721606	      0.15614176	      0.04721606	      0.04175934	      0.04721606	      0.11041527	      0.04721606	      0.14787872	      0.04721606	      0.06626049	      0.04721606	      0.08404567	      0.04721606	      0.09345361
      0.00485583	     93.22299922	      0.00000000	      0.01999047	     -0.00000000	    -90.49245240	   -133.74866503	      1.14702713	     -0.00000000	      0.05768549	      0.00000000	      1.06004667	     -0.00000000	     90.00020523	      0.00000000	    -90.00347142	     63.21162198	     -1.57085691	      1.10325093	     -7.21394044	   -359.38144940	      0.04664334	      0.14858235	      0.04664334	      0.15120522	      0.04664334	      0.15614445	      0.04664334	      0.04176119	      0.04664334	      0.11041597	      0.04664334	      0.14787099	      0.04664334	      0.06623446	      0.04664334	      0.08400535	      0.04664334	      0.09352840
      0.00538613	     93.22299922	      0.00000000	      0.01999047	     -0.00000000	    -90.56705765	   -147.58105909	      1.14702713	     -0.00000000	      0.05768549	      0.00000000	      1.06004667	     -0.00000000	     90.00020523	      0.00000000	    -89.96843875	     68.86870393	     -1.57024548	      1.20198564	     -7.40993680	   -379.21360304	      0.04629237	      0.14858551	      0.04629237	      0.15121324	      0.04629237	      0.15614634	      0.04629237	      0.04176249	      0.04629237	      0.11041630	      0.04629237	      0.14786448	      0.04629237	      0.06621232	      0.04629237	      0.08397068	      0.04629237	      0.09363470
      0.00591644	     93.22299922	      0.00000000	      0.01999047	     -0.00000000	    -90.64893686	   -161.17827796	      1.14702713	     -0.00000000	      0.05768549	      0.00000000	      1.06004667	     -0.00000000	     90.00020523	      0.00000000	    -89.93047181	     74.28115334	     -1.56958283	      1.29645070	     -7.61555735	   -395.76070230	      0.04594437	      0.14858921	      0.04594437	      0.15122267	      0.04594437	      0.15614839	      0.04594437	      0.04176393	      0.04594437	      0.11041653	      0.04594437	      0.14785652	      0.04594437	      0.06618483	      0.04594437	      0.08392718	      0.04594437	      0.09377804
      0.00674959	     93.22299922	      0.00000000	      0.01999047	     -0.00000000	    -90.79194968	   -182.01575311	      1.14702713	     -0.00000000	      0.05768549	      0.00000000	      1.06004667	     -0.00000000	     90.00020523	      0.00000000	    -89.86519637	     82.32222051	     -1.56844356	      1.43679380	     -7.95418647	   -416.03368892	      0.04540353	      0.14859621	      0.04540353	      0.15124050	      0.04540353	      0.15615195	      0.04540353	      0.04176642	      0.04540353	      0.11041659	      0.04540353	      0.14784092	      0.04540353	      0.06612926	      0.04540353	      0.08383816	      0.04540353	      0.09402214
